<svg xmlns="http://www.w3.org/2000/svg" viewBox="0 0 900 720" role="img" aria-labelledby="title desc">
  <title id="title">傳統新聞鉛字與 AI 模組介面的分裂式概念圖</title>
  <desc id="desc">左側是排版鉛字與紙張，右側是 AI 協作模組與資料節點。</desc>
  <defs>
    <linearGradient id="bg" x1="0" x2="1">
      <stop offset="0" stop-color="#f2eadb"/>
      <stop offset=".52" stop-color="#f8f8f2"/>
      <stop offset="1" stop-color="#dceff2"/>
    </linearGradient>
    <filter id="shadow" x="-20%" y="-20%" width="140%" height="140%">
      <feDropShadow dx="0" dy="18" stdDeviation="18" flood-color="#16202b" flood-opacity=".18"/>
    </filter>
  </defs>
  <rect width="900" height="720" rx="36" fill="url(#bg)"/>
  <path d="M440 54 C405 150 505 222 456 326 C407 430 482 516 446 666" fill="none" stroke="#c44732" stroke-width="8" stroke-linecap="round" stroke-dasharray="18 18"/>
  <g filter="url(#shadow)">
    <rect x="72" y="82" width="300" height="470" rx="12" fill="#fffaf0" stroke="#c9bda5"/>
    <rect x="103" y="122" width="238" height="28" fill="#17212b"/>
    <rect x="103" y="170" width="178" height="16" fill="#6e6252"/>
    <rect x="103" y="206" width="238" height="10" fill="#a89d8d"/>
    <rect x="103" y="232" width="212" height="10" fill="#a89d8d"/>
    <rect x="103" y="258" width="230" height="10" fill="#a89d8d"/>
    <g fill="#17212b">
      <rect x="104" y="318" width="38" height="48" rx="3"/>
      <rect x="152" y="318" width="38" height="48" rx="3"/>
      <rect x="200" y="318" width="38" height="48" rx="3"/>
      <rect x="248" y="318" width="38" height="48" rx="3"/>
      <rect x="296" y="318" width="38" height="48" rx="3"/>
      <rect x="104" y="378" width="38" height="48" rx="3"/>
      <rect x="152" y="378" width="38" height="48" rx="3"/>
      <rect x="200" y="378" width="38" height="48" rx="3"/>
      <rect x="248" y="378" width="38" height="48" rx="3"/>
      <rect x="296" y="378" width="38" height="48" rx="3"/>
    </g>
    <text x="123" y="352" fill="#f8f4e9" font-family="serif" font-size="30" font-weight="700">天</text>
    <text x="171" y="352" fill="#f8f4e9" font-family="serif" font-size="30" font-weight="700">下</text>
    <text x="219" y="352" fill="#f8f4e9" font-family="serif" font-size="30" font-weight="700">採</text>
    <text x="267" y="352" fill="#f8f4e9" font-family="serif" font-size="30" font-weight="700">編</text>
    <text x="315" y="352" fill="#f8f4e9" font-family="serif" font-size="30" font-weight="700">稿</text>
  </g>
  <g filter="url(#shadow)">
    <rect x="524" y="118" width="290" height="430" rx="18" fill="#ffffff" stroke="#b8d3d8"/>
    <rect x="558" y="152" width="222" height="44" rx="8" fill="#0e7c7b"/>
    <text x="584" y="181" fill="white" font-family="Arial, sans-serif" font-size="19" font-weight="700">AI Hub Workflow</text>
    <g fill="none" stroke="#91b7bd" stroke-width="3">
      <path d="M670 228 L670 444"/>
      <path d="M670 260 L612 300"/>
      <path d="M670 260 L728 300"/>
      <path d="M670 372 L612 414"/>
      <path d="M670 372 L728 414"/>
    </g>
    <g font-family="Arial, sans-serif" font-size="15" font-weight="700">
      <rect x="602" y="222" width="136" height="52" rx="10" fill="#e5ead9" stroke="#a8b9a3"/>
      <text x="632" y="254" fill="#17212b">資料整理</text>
      <rect x="548" y="300" width="128" height="52" rx="10" fill="#dceff2" stroke="#95bdc5"/>
      <text x="580" y="332" fill="#17212b">題目發想</text>
      <rect x="700" y="300" width="128" height="52" rx="10" fill="#fff2d7" stroke="#d6aa55"/>
      <text x="732" y="332" fill="#17212b">論點檢查</text>
      <rect x="548" y="414" width="128" height="52" rx="10" fill="#fde7df" stroke="#d99a8b"/>
      <text x="580" y="446" fill="#17212b">標題優化</text>
      <rect x="700" y="414" width="128" height="52" rx="10" fill="#e6e4f3" stroke="#aaa4ce"/>
      <text x="730" y="446" fill="#17212b">AEO 建議</text>
    </g>
  </g>
</svg>
